<svg xmlns="http://www.w3.org/2000/svg" viewBox="0 -960 960 960" fill="#5bab00"><path d="M480-80q-126 0-213-87T180-380q0-85 36.5-163.5T324-682q51-46 117-64t129-6q13-56 50.5-97.5T708-900h92v92q0 49-21 93.5T719-635l-40 40 40 40 101-100v135h-88q-36 0-70-13t-61-38l-42 41q20 31 32 66.5t12 73.5q0 125-87 212T540-100h-60v20ZM140-100v-62q0-28 17-50t43-26q53-12 104-34t96-68v40q0 39-19 72t-51 51q-21 12-45 15.5T236-158q-18 2-30.5 15T193-112v12h-53Zm250-20q10 3 20 5.5t20 4.5q48-6 83-37t43-79v-274H366v72q0 39-16.5 72T301-314h-5q-33 0-63-14t-53-38q-1 12-1.5 24t-.5 24q0 119 80 205.5T450-14q-32-5-60-106Z"/></svg>
