<?xml version="1.0" encoding="utf-8"?>
<!-- Generator: Adobe Illustrator 27.0.0, SVG Export Plug-In . SVG Version: 6.00 Build 0)  -->
<svg version="1.1" id="Layer_1" xmlns="http://www.w3.org/2000/svg" xmlns:xlink="http://www.w3.org/1999/xlink" x="0px" y="0px"
	 viewBox="0 0 674.29 217.93" style="enable-background:new 0 0 674.29 217.93;" xml:space="preserve">
<style type="text/css">
	.st0{fill:#004C45;}
	.st1{fill:#EBA900;}
	.st2{fill:#004C46;}
</style>
<g>
	<g>
		<g>
			<path class="st0" d="M148.67,49.48c-2.7,0.13-5.54-0.44-8.16-1.21c-4.5-1.32-9.04-3.15-13.7-2.68
				c-4.25,0.43-8.25,2.88-10.55,6.48c-1.95,3.04-2.65,6.85-1.98,10.4c0.16,0.85,1.21,1.19,1.85,0.62c6.37-5.7,15.18-9.39,23.64-9.88
				c2.7-0.16,5.44-0.03,8.08-0.64c2.08-0.48,4.14-1.53,5.44-3.17c0.31-0.4-0.08-0.94-0.54-0.75
				C151.46,49.15,150.09,49.41,148.67,49.48z"/>
		</g>
		<path class="st1" d="M159.66,89.31c-7.64-17.61-25.53-26.48-42.2-18.05c-1.27,0.64-2.78,0.64-4.04,0
			c-16.66-8.48-34.61,0.45-42.23,18.05c-7.59,16.79-2.06,37.68,11.69,49.52c8.91,7.91,20.95,11.15,32.55,11.19
			c11.7,0.03,23.65-3.22,32.54-11.19C161.71,127,167.25,106.11,159.66,89.31z M113.35,83.99c1.35-0.7,2.97-0.7,4.32,0
			c5.59,2.91,10.38,7.63,13.02,13.38c6.32,13.25,1.24,29.24-15.26,29.14c-20.38,0.03-22.22-23.2-10.89-35.7
			C106.95,88.01,110.05,85.71,113.35,83.99z M130.08,140.08c-4.59,1.68-9.77,2.1-14.64,2.28c-9.71-0.11-19.98-2.84-27-9.67
			c-10.31-9.65-14.19-26.2-7.75-38.94C86,83.12,93.86,78.3,103.56,79.27c0.63,0.06,0.88,0.84,0.41,1.26
			c-6.83,6.09-11.42,14.89-11.76,24.03c-0.86,14.34,8.42,25.9,23.22,25.61c28-0.44,28.96-34.47,11.38-49.62
			c-0.49-0.42-0.24-1.23,0.4-1.3c9.73-0.99,17.61,3.87,22.91,14.49C158.91,111.09,148.53,134.27,130.08,140.08z"/>
	</g>
	<g>
		<path class="st2" d="M329.74,106.74c-1.23-4.75-3.29-8.76-6.18-12.07c-2.89-3.31-6.7-5.33-11.43-6.08
			c-5.04-0.68-9.68,0.05-13.91,2.22c-4.23,2.16-6.93,5.63-8.09,10.41c-0.14,1.58,0.57,2.82,2.18,3.74c1.59,0.92,3.29,1.23,5.09,0.94
			c1.8-0.31,2.89-1.49,3.27-3.55c0.61-3.72,2.16-6.3,4.71-7.72c2.53-1.44,5.09-1.13,7.69,0.94c2.6,2.04,4.31,6.37,5.18,12.99
			c-7.52-1.28-13.54-0.81-18.11,1.4c-4.57,2.22-7.74,5.39-9.52,9.47c-1.78,4.1-2.22,8.31-1.3,12.66c0.92,4.33,3.13,7.98,6.63,10.96
			c3.48,2.96,8.21,4.45,14.13,4.45c5.07-0.19,9.13-1.54,12.12-4.07c3.01-2.51,5.21-5.72,6.6-9.63c1.39-3.91,2.18-8.04,2.37-12.4
			C331.43,116.35,330.95,111.47,329.74,106.74z M300.64,136.37c0,0,0-0.02-0.02-0.02c-0.51-0.46-1-1-1.45-1.62
			c-0.04-0.06-0.06-0.12-0.1-0.18c-0.01-0.01-0.02-0.02-0.01-0.03c-6.59-8.92,2.75-18.56,12.72-18.67c2.01-0.08,5.17,0.24,7.13,0.86
			c1.4,0.44,1.38,1.59,1.71,3.02c0.8,3.55,0.59,7.38-0.78,10.75C316.55,138.72,307.52,143.14,300.64,136.37z"/>
		<path class="st2" d="M522.5,127.17c1.23,4.75,3.29,8.76,6.18,12.07c2.89,3.31,6.7,5.33,11.43,6.08c5.04,0.68,9.68-0.05,13.91-2.22
			c4.23-2.16,6.93-5.63,8.09-10.41c0.14-1.58-0.57-2.82-2.18-3.74c-1.59-0.92-3.29-1.23-5.09-0.94c-1.8,0.31-2.89,1.49-3.27,3.55
			c-0.61,3.72-2.16,6.3-4.71,7.72c-2.53,1.44-5.09,1.13-7.69-0.94c-2.6-2.04-4.31-6.37-5.18-12.99c7.52,1.28,13.54,0.81,18.11-1.4
			c4.57-2.22,7.74-5.39,9.52-9.47c1.78-4.1,2.22-8.31,1.3-12.66c-0.92-4.33-3.13-7.98-6.63-10.96c-3.48-2.96-8.21-4.45-14.13-4.45
			c-5.07,0.19-9.13,1.54-12.12,4.07c-3.01,2.51-5.21,5.72-6.6,9.63c-1.39,3.91-2.18,8.04-2.37,12.4
			C520.8,117.56,521.29,122.44,522.5,127.17z M551.59,97.54c0,0,0,0.02,0.02,0.02c0.51,0.46,1,1,1.45,1.62
			c0.04,0.06,0.06,0.12,0.1,0.18c0.01,0.01,0.02,0.02,0.01,0.03c6.59,8.92-2.75,18.56-12.72,18.67c-2.01,0.08-5.17-0.24-7.13-0.86
			c-1.4-0.44-1.38-1.59-1.71-3.02c-0.8-3.55-0.59-7.38,0.78-10.75C535.69,95.19,544.72,90.77,551.59,97.54z"/>
		<path class="st2" d="M225.88,128.38c0.22-1.73,1.16-2.77,2.82-3.13c1.65-0.36,3.25-0.13,4.79,0.68c1.54,0.81,2.27,2.1,2.2,3.86
			c-0.68,4.62-2.45,8.3-5.33,11.05c-2.87,2.74-6.23,4.3-10.06,4.68c-3.83,0.38-7.51-0.68-11.02-3.16c-3.51-2.48-6.25-6.65-8.2-12.51
			c-1.84-6.8-2.88-15.24-3.13-25.33c-0.25-10.09-0.14-18.72,0.31-25.9c0.3-2.48,1.65-3.92,4.06-4.31c2.4-0.4,4.74-0.04,7.02,1.07
			c2.27,1.11,3.41,2.7,3.41,4.76c-0.11,1.01-0.26,2.24-0.45,3.66c-0.34,2.55-0.65,5.44-0.93,8.65c-0.28,3.21-0.35,6.32-0.2,9.33
			l14.82-0.34c1.58,0.11,2.63,0.87,3.16,2.28c0.53,1.41,0.53,2.82,0.03,4.22c-0.51,1.41-1.55,2.11-3.13,2.11
			c-1.13-0.07-2.22-0.17-3.27-0.28c-2.25-0.3-4.22-0.35-5.89-0.14c-1.67,0.21-2.96,1.09-3.86,2.65s-1.35,4.26-1.35,8.09
			c0.26,7.4,1.47,12.42,3.64,15.05c2.16,2.63,4.35,3.26,6.57,1.89C224.09,135.94,225.43,132.96,225.88,128.38z"/>
		<path class="st2" d="M279.19,101.21c-2.74-4.62-6.39-7.43-10.96-8.43c-4.55-0.99-9.63,0.02-15.19,3.01c0-2.32,0.23-5.4,0.68-9.25
			c0.45-3.83,1.13-7.65,2.03-11.48c0.38-2.37-0.48-4.26-2.58-5.65c-2.11-1.39-4.38-1.9-6.82-1.56c-2.44,0.36-3.97,1.96-4.57,4.76
			c-1.35,9.44-2.01,20.04-1.97,31.8c0.05,11.76,0.59,22.76,1.65,32.97c0.33,1.99,1.52,3.22,3.55,3.69c2.03,0.48,3.98,0.33,5.85-0.42
			c1.89-0.74,2.79-1.97,2.72-3.67c-1.25-9.13-1.4-16.42-0.45-21.86c0.94-5.46,2.46-9.33,4.55-11.64c2.11-2.32,4.24-3.31,6.42-2.96
			c2.6,0.48,4.45,2.25,5.56,5.32c1.11,3.07,1.71,6.74,1.84,11.03c0.1,4.28-0.03,8.49-0.4,12.61c-0.38,4.14-0.76,7.5-1.13,10.1
			c-0.09,0.54-0.14,1-0.17,1.42c-0.07,1.8,0.87,3.08,2.82,3.84c1.94,0.78,3.95,0.95,5.99,0.52c2.06-0.43,3.22-1.56,3.53-3.36
			c0.07-0.68,0.14-1.4,0.23-2.2c0.59-5.4,0.95-12.04,1.07-19.9C283.35,112.07,281.94,105.84,279.19,101.21z"/>
		<path class="st2" d="M369.07,100.37c2.27-1.44,4.78-2.18,7.53-2.25c1.49-0.09,2.48-0.83,2.93-2.27c0.45-1.42,0.42-3-0.12-4.73
			c-0.52-1.73-1.49-3.05-2.93-3.97c-1.42-0.94-3.26-0.9-5.47,0.07c-4.47,2.3-8.73,6.01-12.78,11.12
			c-4.07,5.11-6.84,10.29-8.35,15.55c-0.07-7,0.33-14.24,1.21-21.73c0.88-7.5,1.75-12.94,2.62-16.31c0.42-2.29-0.43-4.1-2.53-5.4
			c-2.11-1.32-4.38-1.82-6.82-1.47c-2.44,0.33-3.97,1.85-4.57,4.57c-1.35,9.09-1.92,19.78-1.71,32.07
			c0.21,12.28,0.81,23.34,1.84,33.2c0.33,1.9,1.4,3.12,3.19,3.64c1.78,0.5,3.53,0.43,5.26-0.24c1.73-0.64,2.67-1.78,2.82-3.39
			c0.03-2.6,0.31-5.26,0.85-8.02c0.52-2.74,1.33-5.11,2.42-7.12c1.07-2.01,2.49-3.2,4.23-3.58c1.39-0.22,2.86,0.52,4.42,2.23
			c1.56,1.7,2.79,4.24,3.69,7.64c0.9,3.38,1.11,7.43,0.62,12.17c-0.07,1.68,0.83,2.82,2.7,3.39c1.89,0.59,3.81,0.61,5.78,0.03
			c1.97-0.55,3.05-1.71,3.24-3.43c0-6.39-0.92-11.85-2.74-16.35c-1.82-4.52-4.21-8.05-7.15-10.6c-2.96-2.56-6.06-4.09-9.33-4.57
			c0.68-1.54,1.8-3.27,3.39-5.21C364.88,103.47,366.8,101.79,369.07,100.37z"/>
		<path class="st2" d="M416.02,100.37c2.29-1.44,4.78-2.18,7.53-2.25c1.51-0.09,2.48-0.83,2.93-2.27c0.45-1.42,0.42-3-0.1-4.73
			c-0.54-1.73-1.51-3.05-2.94-3.97c-1.42-0.94-3.24-0.9-5.46,0.07c-4.49,2.3-8.75,6.01-12.8,11.12c-4.05,5.11-6.84,10.29-8.35,15.55
			c-0.07-7,0.33-14.24,1.21-21.73c0.88-7.5,1.75-12.94,2.61-16.31c0.42-2.29-0.43-4.1-2.53-5.4c-2.11-1.32-4.38-1.82-6.82-1.47
			c-2.44,0.33-3.97,1.85-4.55,4.57c-1.37,9.09-1.94,19.78-1.73,32.07c0.21,12.28,0.81,23.34,1.84,33.2c0.35,1.9,1.4,3.12,3.19,3.64
			c1.78,0.5,3.53,0.43,5.26-0.24c1.73-0.64,2.67-1.78,2.82-3.39c0.03-2.6,0.31-5.26,0.85-8.02c0.52-2.74,1.33-5.11,2.42-7.12
			c1.09-2.01,2.49-3.2,4.23-3.58c1.39-0.22,2.86,0.52,4.42,2.23c1.56,1.7,2.79,4.24,3.71,7.64c0.9,3.38,1.09,7.43,0.61,12.17
			c-0.07,1.68,0.83,2.82,2.72,3.39c1.87,0.59,3.79,0.61,5.77,0.03c1.97-0.55,3.05-1.71,3.24-3.43c0-6.39-0.9-11.85-2.74-16.35
			c-1.82-4.52-4.21-8.05-7.15-10.6c-2.94-2.56-6.06-4.09-9.33-4.57c0.69-1.54,1.82-3.27,3.39-5.21
			C411.83,103.47,413.75,101.79,416.02,100.37z"/>
		<path class="st2" d="M472.34,106.74c-1.23-4.75-3.29-8.76-6.18-12.07c-2.89-3.31-6.7-5.33-11.43-6.08
			c-5.04-0.68-9.68,0.05-13.91,2.22c-4.23,2.16-6.93,5.63-8.09,10.41c-0.14,1.58,0.57,2.82,2.18,3.74c1.59,0.92,3.29,1.23,5.09,0.94
			c1.8-0.31,2.89-1.49,3.27-3.55c0.61-3.72,2.16-6.3,4.71-7.72c2.53-1.44,5.09-1.13,7.69,0.94c2.6,2.04,4.31,6.37,5.18,12.99
			c-7.52-1.28-13.54-0.81-18.11,1.4c-4.57,2.22-7.74,5.39-9.52,9.47c-1.78,4.1-2.22,8.31-1.3,12.66c0.92,4.33,3.13,7.98,6.63,10.96
			c3.48,2.96,8.21,4.45,14.13,4.45c5.07-0.19,9.13-1.54,12.12-4.07c3.01-2.51,5.21-5.72,6.6-9.63c1.39-3.91,2.18-8.04,2.37-12.4
			C474.04,116.35,473.55,111.47,472.34,106.74z M443.24,136.37c0,0,0-0.02-0.02-0.02c-0.51-0.46-1-1-1.45-1.62
			c-0.04-0.06-0.06-0.12-0.1-0.18c-0.01-0.01-0.02-0.02-0.01-0.03c-6.59-8.92,2.75-18.56,12.72-18.67c2.01-0.08,5.17,0.24,7.13,0.86
			c1.4,0.44,1.38,1.59,1.71,3.02c0.8,3.55,0.59,7.38-0.78,10.75C459.15,138.72,450.12,143.14,443.24,136.37z"/>
		<path class="st2" d="M496.25,75.62c0.35-2.37-0.55-4.21-2.7-5.56c-2.15-1.33-4.42-1.78-6.84-1.37c-2.42,0.42-3.9,2.03-4.43,4.85
			c-1.16,9.8-1.77,21.75-1.84,35.87c-0.05,14.11,0.52,26.43,1.73,36.96c0.42,1.99,1.63,3.19,3.65,3.6c2.04,0.42,3.98,0.23,5.84-0.57
			c1.87-0.78,2.74-2.03,2.63-3.71c-1.28-9.21-1.73-20.89-1.37-35C493.31,96.56,494.42,84.87,496.25,75.62z"/>
		<path class="st2" d="M512.01,99.86c-2.08-0.83-4.21-0.88-6.37-0.16c-2.16,0.74-3.33,2.34-3.52,4.83
			c-0.09,4.76-0.03,10.29,0.14,16.54c0.17,6.25,0.48,11.64,0.94,16.14c0.33,1.96,1.4,3.22,3.19,3.76c1.78,0.54,3.55,0.5,5.3-0.12
			c1.73-0.61,2.7-1.71,2.89-3.29c0.16-4.85,0.23-9.78,0.23-14.82c0-6.01,0.14-12.14,0.4-18.37
			C515.17,102.18,514.09,100.68,512.01,99.86z M515.53,78.55c-0.23-2.1-1.47-3.48-3.78-4.14c-2.29-0.66-4.57-0.62-6.88,0.12
			c-2.29,0.73-3.48,2.15-3.6,4.24c0,0.8,0.07,1.87,0.19,3.24c0.14,1.39,0.33,2.72,0.57,4.04c0.24,1.32,0.54,2.29,0.87,2.87
			c1.47,1.8,3.52,2.68,6.13,2.62c2.6-0.05,4.47-1.07,5.59-3.07c0.23-0.52,0.42-1.44,0.54-2.75c0.14-1.32,0.24-2.67,0.31-4.04
			C515.56,80.31,515.58,79.26,515.53,78.55z"/>
		<path class="st2" d="M606.07,99.52c-2.15-5.26-5.47-8.69-9.99-10.3c-4.5-1.63-9.09-1.71-13.77-0.26c-4.68,1.44-8.35,4.16-11,8.1
			c-2.65,3.97-3.19,8.92-1.61,14.86c1.21,3.5,3.22,6.34,6.04,8.54c2.81,2.2,5.7,4.07,8.68,5.61c2.1,1.13,3.91,2.23,5.46,3.33
			c1.54,1.09,2.56,2.27,3.05,3.55c0.57,1.92,0.19,3.43-1.13,4.54c-1.32,1.11-2.91,1.49-4.76,1.13c-1.85-0.35-3.38-1.75-4.54-4.19
			c-0.97-1.96-2.34-2.86-4.09-2.68s-3.08,1.04-4.04,2.63c-0.94,1.58-0.68,3.46,0.8,5.68c2.67,3.31,6.22,5.21,10.65,5.73
			c4.43,0.5,8.54-0.28,12.31-2.32c3.78-2.04,6.01-5.25,6.68-9.61c0.38-4.36-0.66-7.74-3.1-10.17c-2.44-2.42-5.32-4.5-8.62-6.23
			c-2.79-1.51-5.25-3.17-7.38-5.02c-2.15-1.84-3.41-4.24-3.78-7.2c-0.16-3.31,0.81-5.92,2.89-7.84c2.1-1.91,4.35-2.44,6.77-1.59
			c2.42,0.83,4.09,3.71,4.99,8.59c0.36,1.47,1.51,2.29,3.41,2.48c1.89,0.19,3.58-0.31,5.09-1.49
			C606.61,104.18,606.92,102.22,606.07,99.52z"/>
	</g>
</g>
</svg>
